# xmcd CD database file
#
# Track frame offsets:
#	150
#	13690
#	29554
#	44148
#	65257
#	79703
#	95334
#	115298
#	122410
#	145889
#	165805
#	182860
#	213821
#	232970
#	248492
#	259737
#	273876
#	287115
#	295316
#	308643
#	318644
#	332159
#
# Disc length: 4657 seconds
#
# Revision: 0
# Processed by: cddbd v1.5.2PL0 Copyright (c) Steve Scherf et al.
# Submitted via: CDex 1.70
#
DISCID=37122f16
DTITLE=Son House - The Blues
DYEAR=2013
DGENRE=Blues
TTITLE0=Walking Blues
TTITLE1=Dead Letter Blues
TTITLE2=My Black Mama
TTITLE3=Preachin' The Blues
TTITLE4=Dry Spell Blues
TTITLE5=The Jinx Blues (Part 1)
TTITLE6=The Jinx Blues (Part 2)
TTITLE7=John The Revelator
TTITLE8=Delta Blues
TTITLE9=Empire State Express
TTITLE10=Levee Camp Blues
TTITLE11=Government Camp Blues
TTITLE12=The Pony Blues
TTITLE13=Yonder Comes My Mother
TTITLE14=Camp Hollers
TTITLE15=Special Rider Blues
TTITLE16=American Defense
TTITLE17=Am I Right Or Wrong
TTITLE18=Depot Blues
TTITLE19=County Farm Blues
TTITLE20=Clarksdale Moan
TTITLE21=Four O'Clock Blues
EXTD=YEAR: 2013
EXTT0=
EXTT1=
EXTT2=
EXTT3=
EXTT4=
EXTT5=
EXTT6=
EXTT7=
EXTT8=
EXTT9=
EXTT10=
EXTT11=
EXTT12=
EXTT13=
EXTT14=
EXTT15=
EXTT16=
EXTT17=
EXTT18=
EXTT19=
EXTT20=
EXTT21=
PLAYORDER=
